Exact Audio Copy V0.99 prebeta 3 from 28. July 2007

Отчёт EAC об извлечении, выполненном 26. декабря 2007, 22:06

Aborym / Kali-Yuga Bizarre

Дисковод: ASUS    DRW-1608P   Adapter: 2  ID: 0

Режим чтения                 : Достоверность
Использование точного потока : Да
Отключение кэша аудио        : Да
Использование указателей C2  : Нет

Коррекция смещения при чтении                     : 48
Способность читать области Lead-in и Lead-out     : Нет
Заполнение пропущенных сэмплов тишиной            : Да
Удаление блоков с тишиной в начале и конце        : Нет
При вычислениях CRC использовались нулевые сэмплы : Да
Интерфейс                                         : Встроенный Win32-интерфейс для Win NT/2000

Выходной формат          : Пользовательский кодировщик
Выбранный битрейт        : 768 kBit/s
Качество                 : Высокий
Добавление ID3-тэга      : Нет
Утилита сжатия           : C:\Program Files\Exact Audio Copy\FLAC\FLAC.EXE
Дополнительные параметры : -6 -V -T "ARTIST=%a" -T "TITLE=%t" -T "ALBUM=%g" -T "DATE=%y" -T "TRACKNUMBER=%n" -T "GENRE=%m" -T "COMMENT=%e" %s -o %d


TOC извлечённого CD

     Трек |   Старт  | Длительность | Начальный сектор | Конечный сектор 
    ---------------------------------------------------------------------
       1  |  0:00.00 |    4:02.40   |           0      |      18189      
       2  |  4:02.40 |    6:27.44   |       18190      |      47258      
       3  | 10:30.09 |    4:16.11   |       47259      |      66469      
       4  | 14:46.20 |    8:59.17   |       66470      |     106911      
       5  | 23:45.37 |    4:55.09   |      106912      |     129045      
       6  | 28:40.46 |    4:12.24   |      129046      |     147969      
       7  | 32:52.70 |    2:22.65   |      147970      |     158684      
       8  | 35:15.60 |    3:56.06   |      158685      |     176390      
       9  | 39:11.66 |    7:00.60   |      176391      |     207950      
      10  | 48:44.51 |    1:08.69   |      219351      |     224519      


Характеристики диапазона извлечения и сообщения об ошибках

Выбранный диапазон

     Имя файла C:\Music\Aborym\Kali-Yuga Bizarre.wav

     Пиковый уровень 99.9 %
     Качество диапазона 100.0 %
     CRC копии 655CB5C7
     Копирование... OK

Ошибок не произошло

Конец отчёта
